<?xml version="1.0" standalone="no"?>
<!DOCTYPE svg PUBLIC "-//W3C//DTD SVG 20010904//EN"
 "http://www.w3.org/TR/2001/REC-SVG-20010904/DTD/svg10.dtd">
<svg version="1.0" xmlns="http://www.w3.org/2000/svg"
 width="1475.000000pt" height="787.000000pt" viewBox="0 0 1475.000000 787.000000"
 preserveAspectRatio="xMidYMid meet">

<g transform="translate(0.000000,787.000000) scale(0.100000,-0.100000)"
fill="#000000" stroke="none">
<path d="M2088 7396 c-26 -7 -49 -12 -51 -12 -1 1 4 -5 12 -11 18 -15 57 -17
66 -3 3 6 15 10 26 10 10 0 19 7 19 15 0 18 -9 18 -72 1z"/>
<path d="M2600 7028 c-84 -43 -144 -68 -148 -62 -4 6 -32 15 -62 21 -30 6
-109 23 -175 37 -289 62 -454 20 -644 -164 -70 -68 -156 -173 -183 -224 -10
-18 -8 -18 17 2 15 12 32 22 37 22 5 0 26 11 46 25 41 28 80 33 88 11 4 -10
16 -13 37 -11 165 21 205 29 247 53 25 15 63 28 85 29 22 2 80 13 129 25 88
21 91 21 140 4 45 -16 186 -81 226 -104 41 -24 60 -31 60 -23 0 5 -5 11 -12
13 -6 2 -9 12 -5 21 5 15 10 15 26 5 15 -9 25 -9 45 0 26 11 43 2 31 -18 -3
-5 0 -10 8 -10 8 0 22 -9 32 -20 10 -11 22 -20 28 -20 5 0 24 -15 41 -33 28
-30 37 -34 87 -34 31 0 64 -5 75 -11 10 -6 15 -12 11 -12 -12 0 41 -70 77
-102 31 -28 56 -36 56 -19 0 5 9 13 20 16 15 5 19 12 14 27 -4 13 0 24 14 34
20 14 21 33 2 79 -28 71 -39 103 -45 128 -3 15 -10 25 -15 22 -5 -3 -7 3 -5
14 4 22 -21 81 -35 81 -5 0 -12 9 -15 20 -4 11 -18 32 -33 47 -33 33 -37 75
-6 67 17 -4 22 0 27 23 3 15 1 33 -4 39 -9 11 -2 24 12 24 4 0 28 -16 53 -35
52 -39 60 -39 19 0 -52 50 -136 85 -201 85 -54 0 -73 -7 -202 -72z"/>
<path d="M3076 6929 c21 -25 41 -44 44 -42 2 2 -16 23 -40 46 l-44 42 40 -46z"/>
<path d="M828 6822 c-26 -15 -48 -34 -48 -42 1 -18 53 -96 64 -94 4 1 29 13
56 28 l48 26 -31 55 c-18 30 -34 54 -37 54 -3 0 -26 -12 -52 -27z"/>
<path d="M1621 6669 c-59 -11 -68 -23 -11 -14 62 11 181 9 265 -5 83 -13 192
-38 220 -50 50 -22 139 -34 129 -18 -3 5 -12 7 -19 4 -19 -7 -95 15 -92 26 9
41 -359 83 -492 57z"/>
<path d="M1538 6643 c7 -3 16 -2 19 1 4 3 -2 6 -13 5 -11 0 -14 -3 -6 -6z"/>
<path d="M685 6561 c-174 -45 -266 -235 -189 -389 35 -70 99 -125 164 -140
136 -31 236 6 312 115 28 42 32 57 36 128 3 65 0 88 -17 126 -23 52 -95 123
-145 144 -43 18 -123 26 -161 16z m148 -98 c31 -15 28 -29 -10 -44 -41 -15
-106 31 -87 62 7 12 57 3 97 -18z m-178 -13 c13 -22 -7 -70 -35 -85 -28 -15
-60 -11 -60 6 0 12 70 89 81 89 4 0 11 -5 14 -10z m125 -100 c32 -16 40 -26
40 -48 0 -41 -22 -74 -53 -85 -40 -13 -73 4 -94 48 l-17 35 34 35 c19 19 38
35 42 35 5 0 27 -9 48 -20z m155 -42 c6 -36 -6 -90 -21 -95 -5 -2 -17 10 -27
26 -20 34 -15 76 12 91 25 15 30 12 36 -22z m-321 -79 c21 -16 26 -28 24 -53
-4 -43 -26 -40 -61 11 -42 59 -19 86 37 42z m221 -83 c18 -13 17 -14 -6 -29
-32 -21 -95 -32 -103 -18 -10 16 39 61 67 61 13 0 32 -6 42 -14z"/>
<path d="M3401 6304 c0 -11 3 -14 6 -6 3 7 2 16 -1 19 -3 4 -6 -2 -5 -13z"/>
<path d="M3410 6271 c0 -6 4 -13 10 -16 6 -3 7 1 4 9 -7 18 -14 21 -14 7z"/>
<path d="M3431 6164 c0 -11 3 -14 6 -6 3 7 2 16 -1 19 -3 4 -6 -2 -5 -13z"/>
<path d="M3443 6095 c0 -27 2 -38 4 -22 2 15 2 37 0 50 -2 12 -4 0 -4 -28z"/>
<path d="M3444 5845 c0 -88 2 -123 3 -77 2 46 2 118 0 160 -1 42 -3 5 -3 -83z"/>
<path d="M662 5857 c-18 -18 -32 -40 -32 -48 0 -19 61 -79 81 -79 17 0 79 60
79 76 0 13 -73 84 -86 84 -6 0 -24 -15 -42 -33z"/>
<path d="M3433 5635 c0 -22 2 -30 4 -17 2 12 2 30 0 40 -3 9 -5 -1 -4 -23z"/>
<path d="M3416 5544 c-4 -20 -5 -38 -3 -40 3 -3 8 11 11 32 4 20 5 38 3 40 -3
3 -8 -11 -11 -32z"/>
<path d="M3402 5455 c0 -16 2 -22 5 -12 2 9 2 23 0 30 -3 6 -5 -1 -5 -18z"/>
<path d="M3385 5390 c-4 -17 -5 -34 -2 -36 2 -3 7 10 11 27 8 42 0 50 -9 9z"/>
<path d="M3366 5309 c-8 -42 0 -50 9 -9 4 17 5 34 2 36 -2 3 -7 -10 -11 -27z"/>
<path d="M8672 5105 c-75 -17 -133 -43 -183 -84 -43 -36 -102 -145 -124 -227
-32 -122 -9 -304 52 -415 68 -126 209 -198 386 -199 284 0 462 184 460 475 -2
250 -114 407 -320 450 -84 18 -188 18 -271 0z m217 -179 c79 -41 121 -136 121
-272 0 -176 -76 -284 -199 -284 -89 0 -151 51 -181 148 -49 158 -3 358 92 405
41 21 130 22 167 3z"/>
<path d="M12436 5104 c-268 -53 -404 -266 -355 -553 31 -175 145 -295 330
-347 103 -29 316 -25 417 7 l32 11 0 89 c0 64 -3 89 -12 89 -7 0 -47 -7 -88
-16 -114 -24 -234 -15 -302 23 -95 53 -144 152 -136 274 9 114 77 207 181 246
57 21 161 15 243 -12 41 -14 79 -25 83 -25 5 0 12 26 16 58 3 31 8 72 11 90 6
39 -8 46 -131 68 -98 17 -197 17 -289 -2z"/>
<path d="M7107 5102 c-26 -5 -24 -16 68 -422 43 -190 84 -370 90 -402 7 -31
16 -61 19 -67 8 -13 302 -16 310 -3 2 4 30 152 61 327 32 176 59 322 61 324 9
10 15 -17 53 -239 23 -129 49 -275 58 -325 l18 -90 157 -3 c157 -2 158 -2 163
20 7 30 74 329 135 603 27 121 50 234 52 250 l3 30 -107 1 c-60 0 -112 -2
-117 -5 -5 -4 -33 -151 -62 -329 -29 -177 -56 -322 -60 -322 -7 0 -60 269
-100 505 -12 72 -26 134 -31 140 -9 10 -282 15 -298 5 -6 -4 -19 -60 -30 -126
-18 -105 -33 -194 -82 -466 -7 -38 -15 -68 -18 -68 -3 0 -29 145 -59 323 -30
177 -57 326 -62 330 -7 9 -191 17 -222 9z"/>
<path d="M9351 5101 c-8 -5 -11 -127 -9 -452 l3 -444 117 -3 118 -3 2 178 3
178 24 3 c44 7 94 -9 122 -39 19 -20 41 -71 70 -162 23 -72 47 -138 52 -144 7
-9 45 -13 128 -13 99 0 119 3 119 15 0 17 -94 274 -117 320 -9 17 -31 49 -50
72 l-34 42 48 25 c57 29 77 49 99 101 37 90 13 199 -59 262 -63 55 -97 61
-373 66 -138 3 -256 2 -263 -2z m405 -182 c43 -13 66 -41 67 -82 1 -54 -24
-84 -85 -97 -29 -6 -75 -10 -103 -8 l-50 3 -3 88 c-4 113 1 120 82 111 34 -3
75 -10 92 -15z"/>
<path d="M10210 5102 c-6 -2 -10 -162 -10 -453 l0 -449 308 2 307 3 0 85 0 85
-180 5 -180 5 -3 350 c-1 202 -6 353 -12 359 -8 8 -207 15 -230 8z"/>
<path d="M10934 5092 c-11 -11 -13 -91 -11 -450 l2 -437 235 0 c254 0 303 7
400 53 80 39 162 124 189 195 44 120 47 275 5 400 -35 105 -130 187 -264 227
-54 16 -105 19 -304 22 -192 3 -241 1 -252 -10z m456 -190 c121 -52 178 -203
134 -353 -34 -114 -135 -173 -286 -167 l-73 3 -3 260 c-1 143 0 266 3 274 8
20 166 9 225 -17z"/>
<path d="M12934 5095 c-3 -7 -4 -161 -2 -342 3 -318 4 -330 26 -378 42 -92
117 -148 239 -180 108 -28 270 -13 361 34 73 38 141 130 156 211 7 43 10 646
2 658 -4 6 -186 9 -228 3 -5 -1 -8 -135 -8 -298 0 -327 -4 -347 -64 -403 -23
-21 -37 -25 -91 -25 -54 0 -67 4 -90 25 -59 55 -60 59 -65 395 l-5 310 -113 2
c-86 1 -114 -2 -118 -12z"/>
<path d="M13830 5095 c-7 -8 -9 -159 -8 -451 l3 -439 122 -3 122 -3 3 158 3
158 100 6 c115 7 143 13 205 44 58 29 93 68 120 128 57 128 24 260 -83 338
-78 56 -149 70 -374 74 -153 2 -205 0 -213 -10z m397 -185 c55 -33 66 -131 21
-180 -28 -29 -60 -40 -124 -40 l-54 0 0 120 0 120 63 0 c44 0 71 -6 94 -20z"/>
<path d="M4220 5093 c0 -5 -1 -208 -2 -453 l-3 -445 143 -3 142 -3 0 161 c0
121 3 160 13 161 6 0 49 0 94 -1 75 -1 83 1 96 22 16 25 69 163 68 175 -1 4
-61 10 -133 13 l-133 5 0 85 0 85 166 3 167 2 36 95 c20 52 36 97 36 100 0 3
-155 5 -345 5 -190 0 -345 -3 -345 -7z"/>
<path d="M5007 5094 c-4 -4 -7 -209 -7 -456 l0 -448 140 0 140 0 -2 453 -3
452 -131 3 c-71 1 -133 -1 -137 -4z"/>
<path d="M5475 5088 c-3 -7 -4 -211 -3 -453 l3 -440 140 0 140 0 3 158 3 157
93 0 c63 0 97 4 104 13 12 15 72 167 72 185 0 9 -34 12 -135 12 l-136 0 3 88
3 87 165 5 164 5 33 84 c18 47 33 91 33 98 0 19 -678 19 -685 1z"/>
<path d="M6332 5078 c-9 -12 -322 -869 -322 -883 0 -3 59 -4 132 -3 147 3 141
0 165 83 l8 30 159 0 c176 0 167 3 186 -72 l11 -43 140 0 c109 0 140 3 137 13
-3 6 -76 209 -163 450 l-159 437 -142 0 c-101 0 -144 -4 -152 -12z m198 -399
c27 -90 50 -170 50 -176 0 -10 -28 -13 -105 -13 -64 0 -105 4 -105 10 0 16
103 350 107 347 2 -2 26 -78 53 -168z"/>
<path d="M5094 3910 c-214 -56 -344 -200 -374 -413 -31 -216 70 -412 292 -564
82 -57 917 -497 926 -489 10 11 -16 183 -33 220 -32 67 -76 99 -294 215 -116
62 -211 114 -211 116 0 2 25 15 56 29 75 35 174 106 218 158 142 166 138 440
-8 596 -121 130 -367 186 -572 132z m271 -199 c170 -79 208 -354 74 -546 -53
-77 -99 -125 -119 -125 -27 0 -162 88 -219 143 -67 66 -95 110 -117 183 -18
64 -14 150 10 207 21 52 76 108 131 133 65 31 180 33 240 5z"/>
<path d="M7180 3878 c-77 -34 -169 -101 -185 -134 -8 -17 -14 -49 -12 -70 l2
-39 -70 -5 -70 -5 -7 -55 c-3 -30 -6 -74 -7 -97 l-1 -42 78 -3 77 -3 5 -210
c6 -234 12 -260 77 -327 20 -20 59 -47 87 -60 l51 -23 674 -3 673 -3 52 24
c94 43 150 108 232 267 l39 75 3 -182 2 -183 120 0 120 0 -2 413 -3 412 -70 8
c-103 11 -342 11 -400 -1 -28 -6 -78 -21 -110 -33 -82 -30 -173 -121 -203
-202 -32 -86 -45 -188 -38 -299 l6 -98 -480 0 c-521 0 -525 0 -568 55 -21 26
-22 38 -22 201 l0 174 134 0 c95 0 136 4 144 13 10 12 42 143 42 171 0 13 -24
16 -157 18 l-158 3 3 133 c2 72 0 132 -5 131 -4 0 -28 -10 -53 -21z m1690
-431 c0 -28 -73 -245 -106 -313 -60 -128 -144 -171 -186 -97 -22 37 -42 190
-36 280 7 114 49 141 221 142 83 1 107 -2 107 -12z"/>
<path d="M10204 3852 c-98 -21 -130 -41 -154 -95 -21 -47 -45 -136 -38 -142 2
-2 39 7 82 21 221 70 387 45 433 -64 19 -46 13 -133 -12 -187 -39 -83 -189
-204 -432 -349 l-113 -67 0 -72 c0 -40 4 -78 8 -85 7 -9 95 -12 408 -10 l399
3 21 85 c12 47 19 91 17 97 -4 10 -78 13 -327 13 l-321 1 120 48 c230 91 356
170 423 263 69 98 92 236 55 344 -23 70 -109 154 -188 184 -82 32 -264 37
-381 12z"/>
<path d="M11320 3864 c-305 -58 -467 -309 -391 -606 49 -192 162 -328 353
-425 89 -46 176 -55 257 -28 131 43 298 194 364 327 106 214 85 426 -57 586
-52 59 -77 74 -181 114 -33 12 -62 24 -65 28 -6 6 -246 10 -280 4z m245 -218
c61 -29 97 -66 127 -131 20 -43 23 -65 22 -155 -3 -203 -72 -360 -198 -452
-81 -58 -169 -22 -254 106 -72 108 -97 194 -97 336 0 68 5 130 13 152 22 62
67 114 123 142 73 36 190 37 264 2z"/>
<path d="M12258 3856 c-107 -24 -143 -43 -162 -84 -19 -39 -57 -162 -51 -162
3 0 39 12 82 26 63 22 102 27 203 31 116 4 128 2 165 -19 58 -33 88 -96 82
-169 -3 -30 -14 -73 -25 -95 -42 -81 -201 -209 -428 -344 -136 -82 -129 -68
-108 -208 l5 -32 401 2 401 3 19 65 c10 36 17 79 16 95 l-3 30 -320 5 -320 5
93 33 c209 76 376 176 440 266 63 87 77 131 76 236 -1 82 -4 102 -26 145 -35
68 -102 127 -174 155 -48 19 -83 24 -184 26 -78 2 -147 -2 -182 -10z"/>
<path d="M13175 3851 c-109 -30 -123 -37 -144 -79 -18 -35 -53 -153 -48 -159
2 -1 39 10 82 24 70 23 97 27 212 27 118 1 134 -1 160 -20 52 -39 73 -81 73
-148 0 -83 -31 -146 -107 -218 -57 -54 -285 -210 -401 -274 -61 -34 -67 -48
-55 -136 l8 -63 394 -3 c255 -1 398 1 406 8 15 12 49 165 40 180 -4 6 -119 10
-328 10 l-322 1 100 38 c296 114 419 201 488 348 26 57 31 79 31 149 1 74 -2
87 -34 150 -40 78 -88 120 -177 155 -83 32 -278 37 -378 10z"/>
<path d="M6308 3640 c-253 -31 -378 -152 -411 -397 -22 -168 26 -368 101 -422
45 -31 105 -44 155 -31 108 29 177 98 268 273 l59 112 0 -187 0 -188 120 0
120 0 0 414 0 414 -72 6 c-152 12 -275 14 -340 6z m167 -192 c-83 -267 -121
-357 -172 -410 -28 -29 -45 -38 -70 -38 -58 0 -79 54 -89 224 -8 145 3 182 66
214 38 19 60 22 157 22 85 0 111 -3 108 -12z"/>
<path d="M9785 3616 c-85 -40 -143 -117 -192 -252 l-28 -79 -8 135 c-4 74 -11
151 -15 170 l-8 35 -118 3 -119 3 7 -68 c3 -37 9 -225 13 -416 l6 -348 116 3
116 3 8 95 c20 258 115 448 241 485 27 8 63 15 79 15 l29 0 -6 68 c-17 178
-16 172 -45 172 -14 0 -48 -11 -76 -24z"/>
<path d="M1900 3105 c0 -23 24 -67 49 -89 17 -15 19 -22 9 -34 -10 -11 -6 -19
22 -43 42 -35 46 -35 75 -7 l23 22 -20 39 c-14 29 -24 38 -38 34 -13 -3 -27 5
-44 28 -49 64 -76 82 -76 50z"/>
<path d="M2166 3032 c-6 -10 28 -87 42 -96 18 -11 23 55 7 81 -15 23 -39 30
-49 15z"/>
<path d="M2342 2988 c-7 -7 -12 -18 -12 -25 0 -16 -12 -17 -28 -1 -9 9 -12 6
-12 -16 0 -15 27 -77 61 -138 41 -72 63 -125 67 -154 4 -43 5 -44 23 -28 34
31 24 74 -36 154 -52 70 -60 86 -55 120 2 23 32 41 54 34 30 -9 56 -34 56 -55
0 -30 -19 -32 -44 -5 -27 30 -36 32 -36 11 0 -23 45 -65 69 -65 11 0 28 12 37
26 16 24 16 26 -5 52 -12 15 -27 40 -34 55 -10 23 -16 27 -38 22 -19 -4 -28
-1 -32 9 -8 19 -19 20 -35 4z"/>
<path d="M2117 2954 c-13 -13 13 -42 66 -74 29 -17 59 -41 66 -52 11 -17 10
-18 -7 -9 -10 5 -24 16 -31 24 -6 8 -25 21 -42 28 -26 10 -32 10 -39 -2 -10
-15 7 -47 48 -91 14 -15 23 -30 20 -34 -3 -3 -23 16 -44 42 -75 92 -109 114
-109 69 0 -11 18 -31 43 -48 24 -17 48 -42 54 -58 5 -16 26 -38 46 -51 21 -12
49 -36 65 -54 30 -36 75 -51 105 -35 28 15 36 68 15 101 -82 126 -101 151
-124 160 -14 6 -43 29 -65 51 -37 38 -54 46 -67 33z"/>
<path d="M1451 2894 c-1 -12 -15 -47 -31 -78 -17 -31 -27 -56 -24 -56 3 0 -1
-11 -10 -25 -9 -13 -16 -33 -16 -45 0 -11 -9 -37 -20 -57 -11 -21 -20 -50 -20
-66 0 -16 -6 -38 -12 -50 -13 -23 -14 -29 -21 -114 -3 -45 -1 -53 13 -53 19 0
50 30 50 48 0 7 7 12 15 12 9 0 18 7 21 15 8 20 64 48 64 32 0 -7 7 -4 15 6 9
13 20 17 34 12 27 -8 58 9 81 47 17 28 19 29 30 11 9 -14 10 -14 6 -1 -28 92
-174 394 -175 362z"/>
<path d="M1976 2785 c-8 -22 23 -48 48 -40 12 4 31 9 44 12 31 7 28 17 -11 31
-45 16 -74 15 -81 -3z"/>
<path d="M2037 2714 c-3 -3 -4 -11 -1 -18 3 -7 -7 -18 -22 -25 -25 -11 -26
-13 -9 -31 10 -11 14 -26 10 -39 -4 -14 0 -23 17 -32 13 -7 33 -23 46 -36 27
-29 75 -29 80 0 9 49 -35 104 -61 78 -8 -8 -6 -11 6 -11 18 0 41 -35 32 -50
-11 -18 -43 -10 -64 16 -25 32 -27 57 -5 78 28 29 60 18 142 -49 87 -71 124
-82 157 -45 18 20 17 20 -14 20 -38 0 -79 20 -191 94 -80 53 -108 64 -123 50z"/>
<path d="M2512 2665 c-7 -14 -12 -33 -12 -41 0 -36 50 -106 147 -203 112 -113
133 -143 143 -206 l7 -40 16 37 c24 54 22 118 -6 158 -12 19 -55 60 -95 93
-75 61 -105 103 -100 140 2 18 10 22 36 22 42 0 40 9 -5 40 -53 35 -115 35
-131 0z"/>
<path d="M2480 2507 c0 -12 144 -285 167 -314 13 -18 35 -36 48 -39 19 -5 36
-30 79 -119 87 -178 136 -316 134 -374 -2 -39 3 -57 26 -90 46 -67 54 -69 61
-18 9 60 -2 106 -35 143 -15 18 -36 54 -45 80 -31 85 -76 186 -126 286 -36 73
-49 109 -49 142 0 66 -74 160 -212 271 -27 20 -48 35 -48 32z"/>
<path d="M2320 2438 c-24 -40 -25 -65 -4 -118 17 -42 34 -45 34 -5 0 23 17 35
48 35 30 0 62 -43 88 -124 32 -96 48 -122 85 -142 31 -15 86 -18 107 -5 10 6
6 12 -15 26 -29 18 -72 64 -73 78 -1 29 -95 203 -130 241 -37 40 -48 46 -81
46 -34 0 -42 -5 -59 -32z"/>
<path d="M1700 2325 c0 -5 5 -17 10 -25 5 -8 10 -10 10 -5 0 6 -5 17 -10 25
-5 8 -10 11 -10 5z"/>
<path d="M2033 2198 c2 -24 8 -52 13 -62 7 -17 4 -18 -24 -13 -29 6 -32 4 -32
-18 0 -15 15 -42 36 -65 36 -39 36 -41 18 -55 -18 -14 -18 -16 14 -45 41 -38
65 -38 220 -5 76 17 130 24 155 19 77 -12 137 -94 137 -184 0 -28 -5 -60 -10
-70 -6 -11 -6 -21 -1 -24 15 -10 36 56 36 114 -1 78 -35 136 -100 172 -47 26
-57 28 -186 28 -123 0 -139 2 -163 21 -59 46 -68 109 -24 157 45 47 122 13
116 -51 -3 -28 -6 -32 -30 -30 -31 2 -32 0 -18 -28 21 -37 74 -22 90 26 9 29
8 42 -8 79 -32 71 -103 97 -155 56 l-26 -21 -18 21 c-30 35 -46 26 -40 -22z"/>
<path d="M2300 2190 c22 -44 25 -75 10 -116 -15 -39 -5 -41 30 -6 40 41 39 72
-6 122 -46 51 -60 51 -34 0z"/>
<path d="M2850 2160 c-16 -61 -6 -124 35 -214 38 -81 49 -86 78 -37 29 49 22
102 -24 178 -22 38 -48 79 -59 93 l-18 24 -12 -44z"/>
<path d="M2655 1997 c8 -20 24 -66 37 -102 25 -79 50 -101 103 -91 20 4 38 13
41 21 9 21 -61 161 -90 180 -14 9 -43 19 -66 22 l-40 6 15 -36z"/>
<path d="M2272 1880 c-25 -11 -42 -25 -40 -32 3 -7 -14 -26 -36 -43 l-41 -30
28 -3 c26 -3 27 -6 21 -39 l-7 -36 34 25 c77 58 118 72 216 72 99 1 109 7 71
43 -72 66 -161 81 -246 43z"/>
<path d="M3001 1865 c-18 -20 -31 -39 -29 -41 2 -2 21 2 41 8 38 12 41 18 28
52 -6 16 -11 14 -40 -19z"/>
<path d="M3001 1748 l-35 -10 31 -24 c17 -13 34 -35 37 -49 8 -30 17 -31 41
-5 14 15 21 17 32 9 17 -14 16 -13 -3 44 -17 52 -31 56 -103 35z"/>
<path d="M2749 1736 c-73 -26 -170 -117 -175 -163 -1 -15 -6 -39 -10 -51 -6
-22 -5 -23 14 -11 16 10 24 10 35 1 11 -10 17 -4 33 31 11 24 54 77 102 125
69 68 79 82 60 82 -13 -1 -39 -7 -59 -14z"/>
<path d="M2839 1643 c-20 -21 -43 -49 -53 -63 -18 -27 -22 -95 -6 -105 15 -9
41 15 57 53 10 24 20 32 38 32 23 0 25 3 18 28 -4 15 -8 42 -7 60 0 17 -2 32
-6 32 -3 0 -22 -17 -41 -37z"/>
<path d="M3040 1594 c0 -15 42 -72 56 -78 8 -3 24 -1 35 4 24 13 25 50 2 50
-10 0 -27 7 -37 15 -20 15 -56 20 -56 9z"/>
<path d="M2880 1496 c-11 -24 -27 -50 -35 -56 -19 -16 -10 -30 19 -30 42 0 63
42 57 113 -2 29 -18 19 -41 -27z"/>
<path d="M3033 1493 c6 -34 28 -63 48 -63 4 0 17 8 29 18 l22 17 -45 33 c-25
17 -48 32 -52 32 -4 0 -5 -17 -2 -37z"/>
<path d="M2940 1466 c0 -24 -3 -51 -6 -60 -4 -11 0 -16 13 -16 42 0 58 55 27
98 -23 34 -34 27 -34 -22z"/>
<path d="M3020 1407 c0 -37 15 -58 36 -50 18 7 18 33 -2 61 -22 31 -34 27 -34
-11z"/>
<path d="M2446 1178 c-3 -13 -6 -42 -6 -65 0 -36 -3 -43 -20 -43 -16 0 -19 -5
-14 -28 4 -20 0 -33 -15 -46 -12 -11 -21 -25 -21 -33 0 -25 -17 -13 -34 26
-13 28 -24 39 -40 38 -11 0 -28 2 -36 4 -9 2 -14 -2 -12 -9 1 -8 -7 -16 -18
-19 -19 -5 -21 -12 -18 -72 3 -56 6 -66 22 -69 25 -5 46 23 46 60 0 33 -17 38
-22 6 -4 -27 -23 -34 -32 -12 -9 22 20 64 43 64 36 0 43 -23 36 -119 l-8 -91
29 -11 c46 -19 138 -23 150 -8 6 8 21 42 34 77 25 70 52 97 82 81 22 -12 24
-61 4 -78 -19 -16 -30 2 -22 37 l6 27 -20 -24 c-23 -27 -25 -50 -7 -75 8 -11
19 -15 30 -10 23 8 69 106 57 118 -6 6 -10 18 -10 28 0 10 -7 18 -16 18 -9 0
-22 7 -28 16 -11 14 -16 13 -44 -11 -18 -15 -34 -26 -35 -24 -18 29 -24 74
-14 96 9 20 8 27 -3 37 -10 7 -15 30 -15 70 0 61 -17 87 -29 44z"/>
<path d="M1990 919 c-30 -19 -34 -19 -43 -4 -8 15 -10 15 -27 0 -10 -9 -21
-28 -25 -42 -4 -18 -10 -23 -22 -19 -21 8 -33 -10 -33 -49 0 -21 18 -53 60
-109 33 -44 62 -94 66 -112 12 -65 -54 -144 -120 -144 -16 0 -26 -5 -26 -15 0
-40 110 3 158 61 46 55 43 92 -12 180 -56 90 -63 137 -26 174 28 28 76 26 95
-4 17 -26 11 -52 -16 -66 -14 -8 -21 -5 -33 11 l-14 21 -12 -23 c-11 -20 -10
-25 10 -41 33 -27 84 -24 104 7 31 47 11 135 -31 135 -11 0 -14 7 -11 25 7 35
-2 38 -42 14z"/>
<path d="M2205 761 c-11 -5 -29 -19 -40 -31 l-20 -23 22 5 c28 7 47 -15 39
-44 -4 -13 -30 -41 -59 -64 -29 -22 -58 -53 -66 -69 -13 -26 -12 -33 7 -68 26
-47 24 -49 -73 -137 -65 -59 -72 -73 -38 -78 17 -3 42 16 100 73 l77 76 47 -6
c80 -11 124 23 155 120 9 27 26 60 37 73 23 25 57 29 57 7 0 -27 18 -16 25 15
9 39 -1 67 -27 76 -32 10 -62 -13 -102 -76 -34 -53 -66 -91 -66 -77 0 2 9 24
19 48 41 95 37 98 -33 29 -36 -35 -66 -61 -66 -57 0 4 20 37 45 74 50 73 56
104 23 127 -25 18 -34 19 -63 7z"/>
<path d="M1772 703 c2 -12 -3 -17 -14 -15 -10 2 -18 -2 -18 -8 0 -5 4 -10 9
-10 22 0 91 -85 106 -131 19 -55 27 -60 43 -24 32 71 5 143 -68 180 -59 30
-62 30 -58 8z"/>
<path d="M2702 590 c-10 -17 -19 -19 -52 -14 -53 9 -95 -10 -114 -51 -24 -49
-20 -82 10 -101 24 -16 26 -16 47 5 21 22 21 22 2 19 -33 -5 -32 45 1 71 61
48 97 -4 53 -75 -34 -55 -86 -74 -195 -71 -81 2 -93 0 -134 -25 -25 -15 -67
-47 -94 -72 -27 -25 -51 -44 -54 -42 -2 3 15 28 38 58 35 44 40 54 25 56 -30
6 -98 -26 -143 -68 -24 -22 -41 -44 -37 -49 7 -13 267 -13 335 -1 30 5 69 12
86 15 52 8 106 35 111 55 3 11 15 22 27 26 36 11 77 56 70 77 -4 11 2 27 14
40 20 22 42 60 42 73 0 3 -9 4 -19 1 -18 -4 -19 -2 -9 22 24 62 18 95 -10 51z
m-218 -269 c7 -10 -123 -52 -173 -56 -20 -1 -45 -6 -56 -10 -11 -4 -3 5 18 20
21 14 55 33 75 40 42 15 128 19 136 6z"/>
<path d="M1968 451 c-31 -25 -58 -54 -61 -65 -4 -13 -12 -17 -27 -13 -15 4
-19 2 -13 -7 4 -6 1 -5 -7 4 -8 8 -24 17 -35 18 -11 2 -26 8 -32 14 -19 15
-107 0 -94 -16 11 -13 3 -30 -19 -39 -9 -3 -3 -6 13 -6 15 -1 44 -8 65 -17 67
-28 156 -53 162 -45 3 4 13 11 24 14 11 4 16 13 12 22 -3 9 6 23 24 37 45 33
79 125 53 141 -5 3 -33 -16 -65 -42z"/>
</g>
</svg>
